<svg xmlns="http://www.w3.org/2000/svg" width="58.003" height="58" viewBox="0 0 58.003 58">
  <g id="Group_21205" data-name="Group 21205" transform="translate(-1136 -1391)">
    <path id="Path_109" data-name="Path 109" d="M1151.058,1410.176v6.209l2.328,3.6,2.936,3.28,4.218,1.048,3.525-1.048,1.567-5.266-1.567-4.449-6.741-3.372Z" fill="#10cc2d"/>
    <path id="Path_110" data-name="Path 110" d="M1178.418,1413.228l-7.321,1.542-3.561,2.128-1.315,2.331-1.56,3.974v4.732h5.4l5.1-2.191,3.256-4.6v-7.913Z" fill="#10cc2d"/>
    <g id="Line_OK" data-name="Line OK" transform="translate(1135 1390)">
      <path id="Path_97" data-name="Path 97" d="M32.806,59H27.194a.935.935,0,0,1-.935-.842L25.743,53a23.41,23.41,0,0,1-9-3.729l-4.014,3.284a.935.935,0,0,1-1.254-.062L7.509,48.523a.935.935,0,0,1-.062-1.254l3.282-4.016a23.418,23.418,0,0,1-3.732-9l-5.155-.515A.935.935,0,0,1,1,32.806V27.194a.935.935,0,0,1,.842-.935L7,25.743a23.418,23.418,0,0,1,3.729-9L7.447,12.732a.935.935,0,0,1,.062-1.254l3.968-3.969a.935.935,0,0,1,1.254-.062l4.015,3.282a23.41,23.41,0,0,1,9-3.732l.515-5.155A.935.935,0,0,1,27.194,1h5.613a.935.935,0,0,1,.931.842L34.253,7a23.41,23.41,0,0,1,9,3.729l4.014-3.284a.935.935,0,0,1,1.254.062l3.969,3.971a.935.935,0,0,1,.062,1.254l-3.282,4.016a23.418,23.418,0,0,1,3.732,9l5.158.515A.935.935,0,0,1,59,27.2v5.613a.935.935,0,0,1-.842.931L53,34.257a23.418,23.418,0,0,1-3.732,9l3.284,4.015a.935.935,0,0,1-.062,1.254l-3.971,3.969a.936.936,0,0,1-1.254.062l-4.015-3.282a23.41,23.41,0,0,1-9,3.732l-.515,5.155a.935.935,0,0,1-.931.842ZM28.04,57.129h3.924l.5-5.026a.935.935,0,0,1,.791-.832,21.5,21.5,0,0,0,9.484-3.929.935.935,0,0,1,1.147.03l3.912,3.2L50.573,47.8l-3.2-3.912a.935.935,0,0,1-.029-1.147,21.5,21.5,0,0,0,3.929-9.484.935.935,0,0,1,.832-.791l5.025-.5v-3.92l-5.026-.5a.935.935,0,0,1-.832-.791,21.5,21.5,0,0,0-3.929-9.484.935.935,0,0,1,.029-1.147l3.2-3.912L47.8,9.435l-3.912,3.2a.935.935,0,0,1-1.147.03,21.5,21.5,0,0,0-9.484-3.929.935.935,0,0,1-.791-.832l-.5-5.036h-3.92l-.5,5.026a.935.935,0,0,1-.791.832,21.5,21.5,0,0,0-9.484,3.934.935.935,0,0,1-1.147-.03l-3.912-3.2L9.436,12.2l3.2,3.912a.935.935,0,0,1,.029,1.147,21.5,21.5,0,0,0-3.929,9.484.935.935,0,0,1-.832.791l-5.035.5v3.924l5.026.5a.935.935,0,0,1,.832.791,21.5,21.5,0,0,0,3.929,9.484.935.935,0,0,1-.029,1.147L9.428,47.8,12.2,50.574l3.912-3.2a.935.935,0,0,1,1.147-.03,21.5,21.5,0,0,0,9.484,3.929.935.935,0,0,1,.791.832ZM30,45.9A15.909,15.909,0,0,1,15.4,23.69a.936.936,0,0,1,1.718.74,14.032,14.032,0,1,0,26.029.648.935.935,0,0,1,.034-.734.936.936,0,0,1-.561-.483A13.929,13.929,0,0,0,30,15.968a14.116,14.116,0,0,0-10.315,4.508A.935.935,0,1,1,18.313,19.2,15.99,15.99,0,0,1,30,14.1a15.79,15.79,0,0,1,14.3,8.945.935.935,0,0,1,0,.813.935.935,0,0,1,.619.637A15.916,15.916,0,0,1,30,45.9Z" transform="translate(0 0)" fill="#fff"/>
      <path id="Path_98" data-name="Path 98" d="M31.935,47.968A.935.935,0,0,1,31,47.032v-13.1a.935.935,0,1,1,1.871,0v13.1A.935.935,0,0,1,31.935,47.968Z" transform="translate(-1.935 -2.065)" fill="#fff"/>
      <path id="Path_99" data-name="Path 99" d="M35.754,39.909a15.511,15.511,0,0,1-3.667-.428.935.935,0,0,1-.663-.664c-.076-.281-1.811-7.026,2.286-11.126C37.72,23.681,45.665,24,46,24.01a.935.935,0,0,1,.891.892c.015.336.329,8.28-3.68,12.291A10.356,10.356,0,0,1,35.754,39.909Zm-2.638-2.122c1.551.286,6.039.816,8.774-1.918s3.1-7.916,3.142-9.993c-2.078.04-7.28.424-9.994,3.137C32.3,31.748,32.829,36.234,33.116,37.787Z" transform="translate(-1.935 -1.484)" fill="#fff"/>
      <path id="Path_100" data-name="Path 100" d="M32.355,39.769a.935.935,0,0,1-.661-1.6l9.9-9.9A.935.935,0,1,1,42.914,29.6l-9.9,9.9A.936.936,0,0,1,32.355,39.769Z" transform="translate(-1.963 -1.742)" fill="#fff"/>
      <path id="Path_101" data-name="Path 101" d="M35.936,36.613A.935.935,0,0,1,35,35.677V31.935a.935.935,0,0,1,1.871,0v3.742A.935.935,0,0,1,35.936,36.613Z" transform="translate(-2.194 -1.935)" fill="#fff"/>
      <path id="Path_102" data-name="Path 102" d="M41.742,33.871H38.936a.935.935,0,1,1,0-1.871h2.806a.935.935,0,1,1,0,1.871Z" transform="translate(-2.387 -2)" fill="#fff"/>
      <path id="Path_103" data-name="Path 103" d="M27.149,35.909A10.356,10.356,0,0,1,19.69,33.2C15.681,29.185,16,21.241,16.01,20.9a.935.935,0,0,1,.892-.892c.337-.015,8.282-.328,12.291,3.68,4.1,4.1,2.362,10.84,2.286,11.126a.935.935,0,0,1-.663.664A15.521,15.521,0,0,1,27.149,35.909ZM21.013,31.87c2.745,2.745,7.224,2.209,8.774,1.92.286-1.552.817-6.04-1.918-8.776-2.713-2.713-7.914-3.1-9.993-3.137.04,2.079.424,7.28,3.137,9.993Z" transform="translate(-0.968 -1.226)" fill="#fff"/>
      <path id="Path_104" data-name="Path 104" d="M30.834,35.769a.935.935,0,0,1-.661-.274l-9.9-9.9A.935.935,0,1,1,21.6,24.274l9.9,9.9a.936.936,0,0,1-.661,1.6Z" transform="translate(-1.226 -1.484)" fill="#fff"/>
      <path id="Path_105" data-name="Path 105" d="M27.935,32.613A.935.935,0,0,1,27,31.677V27.935a.935.935,0,0,1,1.871,0v3.742A.935.935,0,0,1,27.935,32.613Z" transform="translate(-1.677 -1.677)" fill="#fff"/>
      <path id="Path_106" data-name="Path 106" d="M24.742,29.871H21.935a.935.935,0,0,1,0-1.871h2.806a.935.935,0,0,1,0,1.871Z" transform="translate(-1.29 -1.742)" fill="#fff"/>
    </g>
  </g>
</svg>
