<svg xmlns="http://www.w3.org/2000/svg" width="58.669" height="58.669" viewBox="0 0 58.669 58.669">
  <g id="Group_21203" data-name="Group 21203" transform="translate(-734 -1390)">
    <path id="Path_107" data-name="Path 107" d="M748.68,1448.669l-6.43-8.129L736,1430.445v-10.292l4.067-6.606,8.61-3.481,7.9,3.481,4.226,4.473v12.425l-6.348,10.094Z" fill="#10cc2d"/>
    <g id="distance" transform="translate(734 1390)">
      <g id="Group_5390" data-name="Group 5390">
        <g id="Group_5389" data-name="Group 5389">
          <path id="Path_89" data-name="Path 89" d="M351.112,0a9.789,9.789,0,0,0-9.778,9.778c0,4.677,6.929,14.142,8.552,16.3,0,.7,0,1.379-.017,2.006a1.223,1.223,0,0,0,1.19,1.255h.033a1.223,1.223,0,0,0,1.221-1.19c.017-.644.016-1.346.017-2.062,1.613-2.14,8.559-11.624,8.559-16.306A9.789,9.789,0,0,0,351.112,0Zm0,23.622c-2.687-3.7-7.334-10.732-7.334-13.844a7.334,7.334,0,1,1,14.667,0C358.446,12.89,353.8,19.925,351.112,23.622Z" transform="translate(-302.221)" fill="#fff"/>
          <path id="Path_90" data-name="Path 90" d="M407.779,64a2.444,2.444,0,1,0,2.444,2.444A2.448,2.448,0,0,0,407.779,64Z" transform="translate(-358.888 -56.666)" fill="#fff"/>
          <path id="Path_91" data-name="Path 91" d="M71.334,234.667A7.334,7.334,0,1,0,78.667,242,7.342,7.342,0,0,0,71.334,234.667Zm0,12.223A4.889,4.889,0,1,1,76.223,242,4.894,4.894,0,0,1,71.334,246.89Z" transform="translate(-56.666 -207.777)" fill="#fff"/>
          <path id="Path_92" data-name="Path 92" d="M259.3,383.791a1.219,1.219,0,0,0-1.582.7,28.576,28.576,0,0,1-2.157,4.579,1.223,1.223,0,0,0,2.087,1.275,30.941,30.941,0,0,0,2.35-4.97A1.224,1.224,0,0,0,259.3,383.791Z" transform="translate(-226.119 -339.739)" fill="#fff"/>
          <path id="Path_93" data-name="Path 93" d="M190.012,460.233a13.383,13.383,0,0,1-4.256,2.234,1.223,1.223,0,0,0,.757,2.325,16,16,0,0,0,5.018-2.643,1.223,1.223,0,1,0-1.518-1.917Z" transform="translate(-163.722 -407.261)" fill="#fff"/>
          <path id="Path_94" data-name="Path 94" d="M296.154,306.184a9.929,9.929,0,0,0-3.806,4.526,1.222,1.222,0,1,0,2.2,1.058,7.3,7.3,0,0,1,2.811-3.459,1.222,1.222,0,1,0-1.208-2.125Z" transform="translate(-258.741 -270.957)" fill="#fff"/>
          <path id="Path_95" data-name="Path 95" d="M372.273,279.406a1.226,1.226,0,0,0-1.7.327c-.4.594-1.226,1.412-3.717,1.635a1.222,1.222,0,0,0,.109,2.44c.037,0,.074,0,.111,0,2.646-.238,4.452-1.121,5.522-2.7A1.222,1.222,0,0,0,372.273,279.406Z" transform="translate(-323.836 -247.204)" fill="#fff"/>
          <path id="Path_96" data-name="Path 96" d="M17.563,207.351c3.857-4.113,11.771-13.575,11.771-22.017a14.512,14.512,0,0,0-14.667-14.667A14.512,14.512,0,0,0,0,185.334c0,10.916,13.264,23.578,13.828,24.111a1.215,1.215,0,0,0,.839.334q1.336,0,2.539-.092a1.222,1.222,0,0,0,1.127-1.311A1.2,1.2,0,0,0,17.563,207.351Zm-2.9-.517c-2.887-2.946-12.223-13.12-12.223-21.5a12.093,12.093,0,0,1,12.223-12.223A12.093,12.093,0,0,1,26.89,185.334C26.89,193.713,17.555,203.888,14.667,206.834Z" transform="translate(0 -151.111)" fill="#fff"/>
        </g>
      </g>
    </g>
  </g>
</svg>
