<svg xmlns="http://www.w3.org/2000/svg" width="46.271" height="38" viewBox="0 0 46.271 38">
  <g id="Group_21207" data-name="Group 21207" transform="translate(-262 -3770.546)">
    <g id="Group_21208" data-name="Group 21208">
      <path id="dumpster_1_" data-name="dumpster (1)" d="M44.915,10.532H42.4l.075-2h.149a1.356,1.356,0,0,0,1.286-1.784L41.975.927A1.356,1.356,0,0,0,40.689,0H5.582A1.355,1.355,0,0,0,4.3.927L2.356,6.746A1.356,1.356,0,0,0,3.642,8.53h.149l.075,2H1.356a1.356,1.356,0,1,0,0,2.711H3.969l.678,18.03A1.355,1.355,0,0,0,6,32.578H7.728a4.067,4.067,0,1,0,7.667,0h15.48a4.067,4.067,0,1,0,7.667,0H40.27a1.356,1.356,0,0,0,1.355-1.3l.677-18.03h2.613a1.356,1.356,0,1,0,0-2.711ZM6.559,2.711H39.712l1.036,3.108H5.523ZM33.353,29.866H12.918V8.53H33.353ZM6.5,8.53h3.7V29.866h-2.9Zm6.413,25.4a1.356,1.356,0,1,1-1.356-1.356A1.357,1.357,0,0,1,12.918,33.933Zm23.147,0a1.356,1.356,0,1,1-1.356-1.356A1.357,1.357,0,0,1,36.064,33.933Zm0-4.067V8.53h3.7l-.8,21.336Zm0,0" transform="translate(262 3770.546)" fill="#23355b"/>
      <path id="recycle" d="M1.037,7.095A6.631,6.631,0,0,1,7.667,1.466L7.184.982A.575.575,0,0,1,8,.169L9.633,1.8a.586.586,0,0,1,.077.89L8,4.407a.575.575,0,0,1-.814-.814l.95-.95a5.479,5.479,0,0,0-5.96,4.624.575.575,0,0,1-1.138-.172ZM9.581,13.2A5.479,5.479,0,0,1,2.6,10.352l1.3.347a.575.575,0,0,0,.3-1.111l-2.34-.627a.586.586,0,0,0-.73.5l-.6,2.243a.575.575,0,1,0,1.111.3l.178-.663A6.631,6.631,0,0,0,10,14.272.575.575,0,1,0,9.581,13.2Zm5.079-1.494a.575.575,0,0,0-.7-.407l-.663.178A6.631,6.631,0,0,0,11.734,2.92a.575.575,0,0,0-.718.9,5.48,5.48,0,0,1,1.025,7.472l-.348-1.3a.575.575,0,0,0-1.111.3l.627,2.339a.581.581,0,0,0,.807.379l2.238-.6A.575.575,0,0,0,14.66,11.707Zm0,0" transform="translate(277.186 3780.546)" fill="#23355b"/>
    </g>
  </g>
</svg>
