<svg xmlns="http://www.w3.org/2000/svg" width="57.982" height="58" viewBox="0 0 57.982 58">
  <g id="Group_21204" data-name="Group 21204" transform="translate(-936 -1391)">
    <path id="Path_108" data-name="Path 108" d="M947.058,1433.905l-2.642-3.914-1.51-6.142v-8.7l2.641-7.1,4.263-4.973,4.7-3.742,6.366-2.12h11.867l3.507,2.12,3.157,2.623-6.664,6.091v3.331h1.656l1.85,1.272,6.745-6.669,2.783,4.278,1.494,4.883v8.7l-1.494,4.5-2.783,5.557-3.587,4.148-5.008,3.017-7.345,1.753h-6.178l-6.366-1.753-4.7-3.017,7-5.94-3.932-2.122Z" fill="#10cc2d"/>
    <path id="dust" d="M59.231,18.2A29.013,29.013,0,1,0,38.716,67.725a28.761,28.761,0,0,0,20.515-8.494A29.065,29.065,0,0,0,59.231,18.2ZM57.5,57.5a26.6,26.6,0,1,1,0-37.647A26.676,26.676,0,0,1,57.5,57.5Zm0-33.976a1.026,1.026,0,0,0-.864-.432,1.7,1.7,0,0,0-.936.36L49.3,29.862a4.908,4.908,0,0,0-2.519-.72V29.07l7.27-7.27a1.368,1.368,0,0,0,.36-.936A1.255,1.255,0,0,0,53.976,20,24.145,24.145,0,0,0,19.929,53.9a1.026,1.026,0,0,0,.864.432h.072a1.328,1.328,0,0,0,.864-.36l4.535-4.535a4.963,4.963,0,0,0,1.728,1.728L23.456,55.7a1.368,1.368,0,0,0-.36.936,1.255,1.255,0,0,0,.432.864A24.157,24.157,0,0,0,57.5,23.528ZM27.271,46.778a7.968,7.968,0,0,1-5.327-6.119,1.26,1.26,0,0,0-1.368-1.008,1.369,1.369,0,0,0-.792.5,1.092,1.092,0,0,0-.216.936,10.217,10.217,0,0,0,4.751,6.982L21.08,51.313A21.783,21.783,0,0,1,51.457,20.936L45.77,26.623A8.47,8.47,0,0,0,30.654,29.07,10.238,10.238,0,0,0,23.24,31.3a1,1,0,0,0-.432.792,1.147,1.147,0,0,0,.288.864,1.329,1.329,0,0,0,1.728.216,7.674,7.674,0,0,1,4.895-1.728,6.535,6.535,0,0,1,1.656.216,1.092,1.092,0,0,0,.936-.216,1.335,1.335,0,0,0,.5-.864,6.041,6.041,0,0,1,11.949-.072,1.038,1.038,0,0,0,.5.792,1.092,1.092,0,0,0,.936.216,1.405,1.405,0,0,1,.5-.072,3.042,3.042,0,0,1,3.023,3.023,3.229,3.229,0,0,1-.36,1.368,1.4,1.4,0,0,0,0,1.08,1.268,1.268,0,0,0,.936.648,4.8,4.8,0,0,1-.576,9.574.544.544,0,0,1-.288-.072,1.079,1.079,0,0,0-1.152.72,3.007,3.007,0,0,1-2.735,1.728,3.094,3.094,0,0,1-2.016-.792,1.193,1.193,0,0,0-1.44-.144,6.068,6.068,0,0,1-6.982-.432,1.383,1.383,0,0,0-.864-.288,1.212,1.212,0,0,0-.792.432,3.038,3.038,0,0,1-2.375,1.152,2.939,2.939,0,0,1-2.807-2.016,7.908,7.908,0,0,0-1.008-.648ZM54.12,54.12a21.767,21.767,0,0,1-28,2.375l4.463-4.463h.288a5.624,5.624,0,0,0,3.455-1.224,8.593,8.593,0,0,0,4.391,1.224v0a8.4,8.4,0,0,0,3.743-.864,5.254,5.254,0,0,0,2.951.864v0a5.507,5.507,0,0,0,4.535-2.447,7.24,7.24,0,0,0,2.016-14.109,4.752,4.752,0,0,0,.072-1.008,5.372,5.372,0,0,0-.936-3.023l5.327-5.327a21.672,21.672,0,0,1-2.3,28Zm-31.888-18.5a1.4,1.4,0,0,1,.072.936,1.234,1.234,0,0,1-1.152.792c-.144,0-.288-.072-.432-.072a1.145,1.145,0,0,1-.648-.648,1.068,1.068,0,0,1,0-.936,1.289,1.289,0,0,1,1.584-.72A1.7,1.7,0,0,1,22.232,35.621Zm7.414.648a3.042,3.042,0,0,0-3.023,3.023,1.224,1.224,0,1,1-2.447,0,5.468,5.468,0,0,1,5.471-5.471,6.3,6.3,0,0,1,1.152.144l1.3.288a2.386,2.386,0,0,0,2.879-2.016l.144-1.3a3.637,3.637,0,0,1,3.6-3.1,1.224,1.224,0,0,1,0,2.447A1.164,1.164,0,0,0,37.564,31.3l-.216,1.3a4.7,4.7,0,0,1-5.831,4.031l-1.3-.288c-.144,0-.36-.072-.576-.072Z" transform="translate(926.275 1381.275)" fill="#fff"/>
  </g>
</svg>
