<svg xmlns="http://www.w3.org/2000/svg" width="51.441" height="45.464" viewBox="0 0 51.441 45.464">
  <g id="landfill" transform="translate(0 -29.748)">
    <path id="Path_1822" data-name="Path 1822" d="M48.982,61.614a17.353,17.353,0,0,0-2.157-1.235,1,1,0,0,0-.663-.066c-.527.129-4.382,1.125-6.277,3.128a6,6,0,0,1-.52-1.341h0l-1.014-4.056a5.047,5.047,0,0,0,1.892-3.006h3.131a1,1,0,0,0,1-1v-3.94l3.192-9.825,1.957,4.11a1,1,0,1,0,1.814-.864l-3.026-6.355a1,1,0,0,0-.816-.568L26.584,29.8a1,1,0,0,0-1.266.645L21.267,42.913a1,1,0,0,0,.645,1.266l2.258.734-1.647,4.082h-4.37V33.861a1,1,0,0,0-1-1H7.163a1,1,0,0,0-.835.445C-.266,43.139.16,42.494.108,42.6c-.184.377-.07-.13-.1,11.436a1,1,0,0,0,1,1H4.141a5.017,5.017,0,0,0,.915,2.026H1.01a1,1,0,0,0-1,1V74.208a1,1,0,0,0,1,1H50.435a1,1,0,0,0,1-1V64.887C51.44,63.808,50.636,62.737,48.982,61.614Zm-2.692.742a15.406,15.406,0,0,1,1.563.92c1.559,1.059,1.577,1.605,1.577,1.611v4.231a13.81,13.81,0,0,1-8.34-4C41.877,63.961,44.384,62.875,46.29,62.356ZM14.018,55.039H30.367a5.017,5.017,0,0,0,.915,2.026H13.1a5.019,5.019,0,0,0,.915-2.026Zm18.257-1a3.03,3.03,0,1,1,3.03,3.03A3.034,3.034,0,0,1,32.275,54.034Zm10.095-1H40.243A5.017,5.017,0,0,0,39.328,51H42.37V53.03ZM30.523,44.865,33.954,34.3l5.124,1.665-3.431,10.56Zm12.159,3.951-5.124-1.665,3.431-10.56,5.124,1.665Zm-15.763-16.8,5.124,1.665-3.431,10.56-5.124-1.665Zm-.834,13.517,10.647,3.459H24.689ZM31.281,51a5.02,5.02,0,0,0-.915,2.026H18.153V51ZM7.7,34.865h8.445V41.94L2.9,42.023ZM2.014,44.038l14.13-.088v9.08H14.018a5.04,5.04,0,0,0-9.877,0H2.014Zm4.035,10a3.03,3.03,0,1,1,3.03,3.03,3.034,3.034,0,0,1-3.03-3.03Zm30.489,5.039a32.871,32.871,0,0,0,1.329,4.809H2.014V59.073ZM49.431,73.2H2.014V65.892H39.107c1.79,2.4,5.993,4.892,10.324,5.244Z" transform="translate(0)" fill="#23355b"/>
    <path id="Path_1823" data-name="Path 1823" d="M463.493,243.267a1,1,0,1,0-1.115,0A1.006,1.006,0,0,0,463.493,243.267Z" transform="translate(-415.526 -190.415)" fill="#23355b"/>
    <path id="Path_1824" data-name="Path 1824" d="M473.534,203.1a1,1,0,1,0-1.115,0A1.006,1.006,0,0,0,473.534,203.1Z" transform="translate(-424.558 -154.284)" fill="#23355b"/>
    <path id="Path_1825" data-name="Path 1825" d="M493.775,281.877a1,1,0,1,0,0,1.421A1,1,0,0,0,493.775,281.877Z" transform="translate(-442.63 -226.536)" fill="#23355b"/>
    <path id="Path_1826" data-name="Path 1826" d="M452.185,291.926a1,1,0,1,0,1.421,0A1,1,0,0,0,452.185,291.926Z" transform="translate(-406.494 -235.576)" fill="#23355b"/>
    <path id="Path_1827" data-name="Path 1827" d="M82.1,261.8a1,1,0,1,0-.153,1.545A1.005,1.005,0,0,0,82.1,261.8Z" transform="translate(-72.306 -208.472)" fill="#23355b"/>
    <path id="Path_1828" data-name="Path 1828" d="M343.156,261.8a1,1,0,1,0,0,1.421A1.005,1.005,0,0,0,343.156,261.8Z" transform="translate(-307.14 -208.477)" fill="#23355b"/>
  </g>
</svg>
