<svg xmlns="http://www.w3.org/2000/svg" width="52.264" height="39.963" viewBox="0 0 52.264 39.963">
  <g id="sand" transform="translate(0 -60.25)">
    <path id="Path_1829" data-name="Path 1829" d="M52.186,98.2a163.012,163.012,0,0,0-7.771-18.651,68.381,68.381,0,0,0-8.073-12.98c-3.493-4.192-6.928-6.317-10.209-6.317s-6.717,2.125-10.209,6.317A68.384,68.384,0,0,0,7.85,79.547,163,163,0,0,0,.079,98.2a1.531,1.531,0,0,0,1.453,2.015h49.2A1.531,1.531,0,0,0,52.186,98.2ZM3.693,97.151A159.056,159.056,0,0,1,10.6,80.89c5.671-11.335,11.186-17.577,15.53-17.577s9.859,6.242,15.53,17.577a159.046,159.046,0,0,1,6.909,16.262Z" transform="translate(0 0)" fill="#23355b"/>
    <path id="Path_1830" data-name="Path 1830" d="M182.27,180.75a1.531,1.531,0,1,0,1.531,1.531A1.548,1.548,0,0,0,182.27,180.75Z" transform="translate(-162.288 -108.2)" fill="#23355b"/>
    <path id="Path_1831" data-name="Path 1831" d="M391.614,363.031a1.531,1.531,0,1,0,1.531-1.531A1.558,1.558,0,0,0,391.614,363.031Z" transform="translate(-351.637 -270.499)" fill="#23355b"/>
    <path id="Path_1832" data-name="Path 1832" d="M152.145,276.75a1.531,1.531,0,1,0,1.531,1.531A1.548,1.548,0,0,0,152.145,276.75Z" transform="translate(-135.238 -194.4)" fill="#23355b"/>
    <path id="Path_1833" data-name="Path 1833" d="M302.77,365.375a1.531,1.531,0,1,0,1.531,1.531A1.548,1.548,0,0,0,302.77,365.375Z" transform="translate(-270.487 -273.979)" fill="#23355b"/>
    <path id="Path_1834" data-name="Path 1834" d="M122.02,361.5a1.531,1.531,0,1,0,1.531,1.531A1.548,1.548,0,0,0,122.02,361.5Z" transform="translate(-108.188 -270.499)" fill="#23355b"/>
    <path id="Path_1835" data-name="Path 1835" d="M272.645,271.125a1.531,1.531,0,1,0,1.531,1.531A1.548,1.548,0,0,0,272.645,271.125Z" transform="translate(-243.437 -189.349)" fill="#23355b"/>
    <path id="Path_1836" data-name="Path 1836" d="M332.895,215.75a1.531,1.531,0,1,0,1.531,1.531A1.548,1.548,0,0,0,332.895,215.75Z" transform="translate(-297.537 -139.627)" fill="#23355b"/>
    <path id="Path_1837" data-name="Path 1837" d="M212.395,331.375a1.531,1.531,0,1,0,1.531,1.531A1.548,1.548,0,0,0,212.395,331.375Z" transform="translate(-189.338 -243.449)" fill="#23355b"/>
    <path id="Path_1838" data-name="Path 1838" d="M242.52,210.875a1.531,1.531,0,1,0,1.531,1.531A1.548,1.548,0,0,0,242.52,210.875Z" transform="translate(-216.388 -135.25)" fill="#23355b"/>
    <path id="Path_1839" data-name="Path 1839" d="M332.895,301.25a1.531,1.531,0,1,0,1.531,1.531A1.548,1.548,0,0,0,332.895,301.25Z" transform="translate(-297.537 -216.399)" fill="#23355b"/>
    <path id="Path_1840" data-name="Path 1840" d="M272.645,150.625a1.531,1.531,0,1,0,1.531,1.531A1.548,1.548,0,0,0,272.645,150.625Z" transform="translate(-243.437 -81.15)" fill="#23355b"/>
  </g>
</svg>
