<svg xmlns="http://www.w3.org/2000/svg" width="33.429" height="45" viewBox="0 0 33.429 45">
  <g id="waste" transform="translate(-126 -377.374)">
    <path id="Path_1820" data-name="Path 1820" d="M146.571,68.571a1.286,1.286,0,0,0,0-2.571,5.149,5.149,0,0,0-5.143,5.143v3.368a12.913,12.913,0,0,0-4.5-.8c-6.026,0-10.929,4.037-10.929,9A1.286,1.286,0,0,0,127.286,84c3.965,0,6.429,3.2,6.429,8.357,0,5.118-2.452,8.32-6.4,8.357h-.029A1.286,1.286,0,0,0,126,102c0,4.963,4.9,9,10.929,9a12.7,12.7,0,0,0,5.786-1.36A12.7,12.7,0,0,0,148.5,111c6.026,0,10.929-4.037,10.929-9a1.286,1.286,0,0,0-1.286-1.286h-.029c-3.948-.037-6.4-3.239-6.4-8.357,0-5.155,2.463-8.357,6.429-8.357a1.286,1.286,0,0,0,1.286-1.286c0-4.963-4.9-9-10.929-9a12.914,12.914,0,0,0-4.5.8V71.143A2.574,2.574,0,0,1,146.571,68.571Zm1.929,39.857a10.014,10.014,0,0,1-5.128-1.362,1.286,1.286,0,0,0-1.315,0,10.014,10.014,0,0,1-5.128,1.362c-4.036,0-7.413-2.212-8.189-5.143h10.118a5.131,5.131,0,0,0,3.857-1.747,5.125,5.125,0,0,0,3.857,1.745h10.118C155.913,106.216,152.536,108.429,148.5,108.429Zm.643-16.071A11.936,11.936,0,0,0,152,100.714h-5.425A2.574,2.574,0,0,1,144,98.143a1.286,1.286,0,0,0-2.571,0,2.574,2.574,0,0,1-2.571,2.571h-5.425a11.935,11.935,0,0,0,2.854-8.357A11.957,11.957,0,0,0,133.439,84h5.419a2.574,2.574,0,0,1,2.571,2.571,1.286,1.286,0,0,0,2.571,0A2.576,2.576,0,0,1,146.571,84h5.419A11.963,11.963,0,0,0,149.143,92.357Zm7.544-10.929H146.571a5.131,5.131,0,0,0-3.857,1.747,5.131,5.131,0,0,0-3.857-1.747H128.741c.777-2.93,4.152-5.143,8.187-5.143a10.014,10.014,0,0,1,5.128,1.362,1.286,1.286,0,0,0,1.315,0,10.014,10.014,0,0,1,5.128-1.362C152.536,76.286,155.91,78.5,156.687,81.429Z" transform="translate(0 311.374)" fill="#23355b"/>
  </g>
</svg>
