<svg xmlns="http://www.w3.org/2000/svg" width="44.972" height="45" viewBox="0 0 44.972 45">
  <g id="water_cycle" transform="translate(-1.006 -0.997)">
    <path id="Path_1821" data-name="Path 1821" d="M24.519,10.407l-1.027-.965-1.027.965c-.387.363-9.471,8.978-9.471,16.09a10.5,10.5,0,0,0,21,0C33.99,19.385,24.906,10.77,24.519,10.407ZM23.492,34a7.507,7.507,0,0,1-7.5-7.5c0-4.234,4.736-10.022,7.5-12.885,2.764,2.86,7.5,8.642,7.5,12.885A7.507,7.507,0,0,1,23.492,34Zm0-4.5v3a6.005,6.005,0,0,1-6-6h3A3,3,0,0,0,23.492,29.5ZM39.4,39.405a22.44,22.44,0,0,1-30.844.88v4.331h-3V35.255h9.362v3H10.775a19.458,19.458,0,0,0,26.5-.968,19.584,19.584,0,0,0,4.512-20.53l-.516-1.409,2.816-1.033.517,1.407A22.592,22.592,0,0,1,39.4,39.405ZM5.711,31.647,2.895,32.68l-.517-1.407A22.592,22.592,0,0,1,7.585,7.589,22.439,22.439,0,0,1,38.43,6.71V2.378h3v9.363H32.067v-3h4.144a19.458,19.458,0,0,0-26.5.967,19.584,19.584,0,0,0-4.512,20.53Z" fill="#23355b"/>
  </g>
</svg>
