<svg xmlns="http://www.w3.org/2000/svg" width="53.235" height="51.98" viewBox="0 0 53.235 51.98">
  <g id="XMLID_1088_" transform="translate(0 -6.033)">
    <g id="XMLID_3324_" transform="translate(1.038 25.309)">
      <g id="XMLID_3329_">
        <path id="XMLID_3330_" d="M19.949,208.983l3.225-5.586,1.206-2.088,3.809,2.2-3.241-12.1-12.1,3.241,3.6,2.076L10.506,207.02a3.926,3.926,0,0,0,0,3.926l3.021,5.233a3.926,3.926,0,0,0,3.4,1.963H28.189v-9.159Z" transform="translate(-9.98 -191.412)" fill="#10cc2d"/>
      </g>
      <path id="XMLID_3328_" d="M58.086,369.035a3.923,3.923,0,0,0,1.945.516H71.292v-9.159h-8.24Z" transform="translate(-53.084 -342.821)" fill="#0eb227"/>
    </g>
    <g id="XMLID_3317_" transform="translate(24.512 31.947)">
      <g id="XMLID_3322_">
        <path id="XMLID_3323_" d="M253.448,266.956h-8.861v-4.4l-8.855,8.855,8.855,8.855v-4.152H256.47a3.926,3.926,0,0,0,3.4-1.963l3.021-5.233a3.926,3.926,0,0,0,0-3.926l-5.631-9.753-7.932,4.58Z" transform="translate(-235.732 -255.241)" fill="#10cc2d"/>
      </g>
      <path id="XMLID_3321_" d="M380.051,264.993l-5.631-9.753-7.932,4.58,4.12,7.136h9.969A3.925,3.925,0,0,0,380.051,264.993Z" transform="translate(-352.892 -255.241)" fill="#0eb227"/>
    </g>
    <g id="XMLID_3315_" transform="translate(15.242 7.073)">
      <path id="XMLID_3316_" d="M158.633,25.192l3.225,5.586,1.206,2.088-3.809,2.2,12.1,3.241,3.241-12.1L171,28.286,165.055,18a3.926,3.926,0,0,0-3.4-1.963h-6.042a3.927,3.927,0,0,0-3.4,1.963l-5.631,9.753,7.932,4.58Z" transform="translate(-146.581 -16.032)" fill="#10cc2d"/>
    </g>
    <path id="XMLID_3314_" d="M152.214,22.529l-5.631,9.753,7.932,4.58,4.12-7.136-4.985-8.634A3.925,3.925,0,0,0,152.214,22.529Z" transform="translate(-131.341 -13.493)" fill="#0eb227"/>
    <g id="XMLID_78_" transform="translate(0 6.033)">
      <path id="XMLID_89_" d="M19.246,198.98H12.808l3.01-5.214,2.909,1.679a1.04,1.04,0,0,0,1.524-1.17l-3.241-12.1a1.04,1.04,0,0,0-1.274-.735l-12.1,3.241a1.04,1.04,0,0,0-.251,1.9l2.7,1.556-5.422,9.39a4.98,4.98,0,0,0,0,4.966l3.021,5.233a4.98,4.98,0,0,0,4.3,2.483H19.246a1.04,1.04,0,0,0,1.04-1.04V200.02a1.04,1.04,0,0,0-1.04-1.04ZM2.464,201.464a2.9,2.9,0,0,1,0-2.886l5.941-10.291a1.04,1.04,0,0,0-.381-1.42L6.6,186.045l8.667-2.322,2.322,8.667-1.635-.944a1.04,1.04,0,0,0-1.42.381l-8.8,15.238a2.854,2.854,0,0,1-.254-.367Zm15.742,6.676H7.985a2.871,2.871,0,0,1-.445-.036l4.067-7.044h6.6Z" transform="translate(0 -163.173)" fill="#23355b"/>
      <path id="XMLID_774_" d="M254.832,255.511l-5.631-9.753a1.04,1.04,0,0,0-1.42-.381l-7.932,4.58a1.04,1.04,0,0,0-.381,1.42l3.219,5.576h-6.02V253.6a1.04,1.04,0,0,0-1.775-.735l-8.855,8.855a1.04,1.04,0,0,0,0,1.471l8.855,8.855a1.04,1.04,0,0,0,1.775-.735v-3.113H247.51a4.98,4.98,0,0,0,4.3-2.483l3.021-5.233A4.979,4.979,0,0,0,254.832,255.511Zm-13.043-4.272,6.131-3.54,5.111,8.852a2.862,2.862,0,0,1,.191.4h-8.133Zm8.221,13.431a2.894,2.894,0,0,1-2.5,1.443H235.627a1.04,1.04,0,0,0-1.04,1.04V268.8l-6.345-6.345,6.345-6.345v1.888a1.04,1.04,0,0,0,1.04,1.04h17.6a2.852,2.852,0,0,1-.191.4Z" transform="translate(-202.26 -220.365)" fill="#23355b"/>
      <path id="XMLID_853_" d="M146.453,23.888l3.219-5.576,3.01,5.214-2.908,1.679a1.04,1.04,0,0,0,.251,1.9l12.1,3.241a1.039,1.039,0,0,0,1.274-.735l3.241-12.1a1.04,1.04,0,0,0-1.524-1.17l-2.7,1.556-.954-1.653a1.04,1.04,0,1,0-1.8,1.04l1.474,2.554a1.04,1.04,0,0,0,1.42.381l1.422-.821-2.322,8.667-8.667-2.322,1.635-.944a1.04,1.04,0,0,0,.381-1.42l-8.8-15.238a2.866,2.866,0,0,1,.445-.036h6.042a2.9,2.9,0,0,1,2.329,1.182A1.04,1.04,0,1,0,156.7,8.067a4.982,4.982,0,0,0-4.008-2.034h-6.042a4.98,4.98,0,0,0-4.3,2.483l-5.631,9.753a1.04,1.04,0,0,0,.381,1.42l7.932,4.58a1.04,1.04,0,0,0,1.421-.381Zm-1.281-1.94-6.131-3.54,5.111-8.852a2.863,2.863,0,0,1,.254-.367l4.067,7.044Z" transform="translate(-122.378 -6.033)" fill="#23355b"/>
      <path id="XMLID_854_" d="M335.739,62.429a1.04,1.04,0,1,0-.735-.3A1.046,1.046,0,0,0,335.739,62.429Z" transform="translate(-299.896 -54.701)" fill="#23355b"/>
    </g>
  </g>
</svg>
